<mxfile host="app.diagrams.net" modified="2024-03-06T20:49:28.692Z" agent="Mozilla/5.0 (Macintosh; Intel Mac OS X 10_15_7) AppleWebKit/537.36 (KHTML, like Gecko) Chrome/122.0.0.0 Safari/537.36" etag="YFzKTKli9afUMBQlR03M" version="23.1.6" type="device">
  <diagram id="C5RBs43oDa-KdzZeNtuy" name="Page-1">
    <mxGraphModel dx="1706" dy="866" grid="1" gridSize="10" guides="1" tooltips="1" connect="1" arrows="1" fold="1" page="1" pageScale="1" pageWidth="827" pageHeight="1169" math="0" shadow="0">
      <root>
        <mxCell id="WIyWlLk6GJQsqaUBKTNV-0" />
        <mxCell id="WIyWlLk6GJQsqaUBKTNV-1" parent="WIyWlLk6GJQsqaUBKTNV-0" />
        <mxCell id="cYaYZuOsjZ7oo6lZCn4Q-78" value="" style="whiteSpace=wrap;html=1;aspect=fixed;" vertex="1" parent="WIyWlLk6GJQsqaUBKTNV-1">
          <mxGeometry x="30" y="100" width="780" height="780" as="geometry" />
        </mxCell>
        <mxCell id="cYaYZuOsjZ7oo6lZCn4Q-3" value="BallFlyweight" style="swimlane;fontStyle=1;align=center;verticalAlign=top;childLayout=stackLayout;horizontal=1;startSize=26;horizontalStack=0;resizeParent=1;resizeParentMax=0;resizeLast=0;collapsible=1;marginBottom=0;whiteSpace=wrap;html=1;" vertex="1" parent="WIyWlLk6GJQsqaUBKTNV-1">
          <mxGeometry x="523" y="300" width="180" height="94" as="geometry" />
        </mxCell>
        <mxCell id="cYaYZuOsjZ7oo6lZCn4Q-4" value="- image&lt;br&gt;- radius" style="text;strokeColor=none;fillColor=none;align=left;verticalAlign=top;spacingLeft=4;spacingRight=4;overflow=hidden;rotatable=0;points=[[0,0.5],[1,0.5]];portConstraint=eastwest;whiteSpace=wrap;html=1;" vertex="1" parent="cYaYZuOsjZ7oo6lZCn4Q-3">
          <mxGeometry y="26" width="180" height="34" as="geometry" />
        </mxCell>
        <mxCell id="cYaYZuOsjZ7oo6lZCn4Q-5" value="" style="line;strokeWidth=1;fillColor=none;align=left;verticalAlign=middle;spacingTop=-1;spacingLeft=3;spacingRight=3;rotatable=0;labelPosition=right;points=[];portConstraint=eastwest;strokeColor=inherit;" vertex="1" parent="cYaYZuOsjZ7oo6lZCn4Q-3">
          <mxGeometry y="60" width="180" height="8" as="geometry" />
        </mxCell>
        <mxCell id="cYaYZuOsjZ7oo6lZCn4Q-6" value="+ method(type): type" style="text;strokeColor=none;fillColor=none;align=left;verticalAlign=top;spacingLeft=4;spacingRight=4;overflow=hidden;rotatable=0;points=[[0,0.5],[1,0.5]];portConstraint=eastwest;whiteSpace=wrap;html=1;" vertex="1" parent="cYaYZuOsjZ7oo6lZCn4Q-3">
          <mxGeometry y="68" width="180" height="26" as="geometry" />
        </mxCell>
        <mxCell id="cYaYZuOsjZ7oo6lZCn4Q-23" value="BallFlyweightFactory" style="swimlane;fontStyle=1;align=center;verticalAlign=top;childLayout=stackLayout;horizontal=1;startSize=26;horizontalStack=0;resizeParent=1;resizeParentMax=0;resizeLast=0;collapsible=1;marginBottom=0;whiteSpace=wrap;html=1;" vertex="1" parent="WIyWlLk6GJQsqaUBKTNV-1">
          <mxGeometry x="495" y="120" width="250" height="110" as="geometry" />
        </mxCell>
        <mxCell id="cYaYZuOsjZ7oo6lZCn4Q-24" value="+&amp;nbsp;ballType_cache" style="text;strokeColor=none;fillColor=none;align=left;verticalAlign=top;spacingLeft=4;spacingRight=4;overflow=hidden;rotatable=0;points=[[0,0.5],[1,0.5]];portConstraint=eastwest;whiteSpace=wrap;html=1;" vertex="1" parent="cYaYZuOsjZ7oo6lZCn4Q-23">
          <mxGeometry y="26" width="250" height="26" as="geometry" />
        </mxCell>
        <mxCell id="cYaYZuOsjZ7oo6lZCn4Q-25" value="" style="line;strokeWidth=1;fillColor=none;align=left;verticalAlign=middle;spacingTop=-1;spacingLeft=3;spacingRight=3;rotatable=0;labelPosition=right;points=[];portConstraint=eastwest;strokeColor=inherit;" vertex="1" parent="cYaYZuOsjZ7oo6lZCn4Q-23">
          <mxGeometry y="52" width="250" height="8" as="geometry" />
        </mxCell>
        <mxCell id="cYaYZuOsjZ7oo6lZCn4Q-26" value="+ static getBallType(BALL_TYPE):&amp;nbsp;BallFlyweight" style="text;strokeColor=none;fillColor=none;align=left;verticalAlign=top;spacingLeft=4;spacingRight=4;overflow=hidden;rotatable=0;points=[[0,0.5],[1,0.5]];portConstraint=eastwest;whiteSpace=wrap;html=1;" vertex="1" parent="cYaYZuOsjZ7oo6lZCn4Q-23">
          <mxGeometry y="60" width="250" height="50" as="geometry" />
        </mxCell>
        <mxCell id="cYaYZuOsjZ7oo6lZCn4Q-27" value="" style="endArrow=open;html=1;endSize=12;startArrow=diamondThin;startSize=14;startFill=0;edgeStyle=orthogonalEdgeStyle;align=left;verticalAlign=bottom;rounded=0;entryX=0.5;entryY=0;entryDx=0;entryDy=0;exitX=0.472;exitY=1.02;exitDx=0;exitDy=0;exitPerimeter=0;" edge="1" parent="WIyWlLk6GJQsqaUBKTNV-1" source="cYaYZuOsjZ7oo6lZCn4Q-26" target="cYaYZuOsjZ7oo6lZCn4Q-3">
          <mxGeometry x="-1" y="3" relative="1" as="geometry">
            <mxPoint x="618" y="240" as="sourcePoint" />
            <mxPoint x="618" y="290" as="targetPoint" />
          </mxGeometry>
        </mxCell>
        <mxCell id="cYaYZuOsjZ7oo6lZCn4Q-28" value="Ball_Context" style="swimlane;fontStyle=1;align=center;verticalAlign=top;childLayout=stackLayout;horizontal=1;startSize=26;horizontalStack=0;resizeParent=1;resizeParentMax=0;resizeLast=0;collapsible=1;marginBottom=0;whiteSpace=wrap;html=1;" vertex="1" parent="WIyWlLk6GJQsqaUBKTNV-1">
          <mxGeometry x="229" y="270" width="180" height="170" as="geometry" />
        </mxCell>
        <mxCell id="cYaYZuOsjZ7oo6lZCn4Q-29" value="+ pos_x: float&lt;br&gt;+ pos_y: float&lt;br&gt;+ vel_x: float&lt;br&gt;+ vel_y: float&lt;br&gt;-&amp;nbsp; intrinsicStates:&amp;nbsp;BallFlyweight" style="text;strokeColor=none;fillColor=none;align=left;verticalAlign=top;spacingLeft=4;spacingRight=4;overflow=hidden;rotatable=0;points=[[0,0.5],[1,0.5]];portConstraint=eastwest;whiteSpace=wrap;html=1;" vertex="1" parent="cYaYZuOsjZ7oo6lZCn4Q-28">
          <mxGeometry y="26" width="180" height="94" as="geometry" />
        </mxCell>
        <mxCell id="cYaYZuOsjZ7oo6lZCn4Q-30" value="" style="line;strokeWidth=1;fillColor=none;align=left;verticalAlign=middle;spacingTop=-1;spacingLeft=3;spacingRight=3;rotatable=0;labelPosition=right;points=[];portConstraint=eastwest;strokeColor=inherit;" vertex="1" parent="cYaYZuOsjZ7oo6lZCn4Q-28">
          <mxGeometry y="120" width="180" height="8" as="geometry" />
        </mxCell>
        <mxCell id="cYaYZuOsjZ7oo6lZCn4Q-31" value="+ updatePos&lt;span style=&quot;background-color: initial;&quot;&gt;()&lt;br&gt;+ draw()&lt;br&gt;&lt;/span&gt;" style="text;strokeColor=none;fillColor=none;align=left;verticalAlign=top;spacingLeft=4;spacingRight=4;overflow=hidden;rotatable=0;points=[[0,0.5],[1,0.5]];portConstraint=eastwest;whiteSpace=wrap;html=1;" vertex="1" parent="cYaYZuOsjZ7oo6lZCn4Q-28">
          <mxGeometry y="128" width="180" height="42" as="geometry" />
        </mxCell>
        <mxCell id="cYaYZuOsjZ7oo6lZCn4Q-32" style="edgeStyle=orthogonalEdgeStyle;rounded=0;orthogonalLoop=1;jettySize=auto;html=1;entryX=0;entryY=0.5;entryDx=0;entryDy=0;" edge="1" parent="WIyWlLk6GJQsqaUBKTNV-1" source="cYaYZuOsjZ7oo6lZCn4Q-29" target="cYaYZuOsjZ7oo6lZCn4Q-4">
          <mxGeometry relative="1" as="geometry">
            <mxPoint x="500" y="370" as="targetPoint" />
          </mxGeometry>
        </mxCell>
        <mxCell id="cYaYZuOsjZ7oo6lZCn4Q-34" value="BallSimulator" style="swimlane;fontStyle=1;align=center;verticalAlign=top;childLayout=stackLayout;horizontal=1;startSize=26;horizontalStack=0;resizeParent=1;resizeParentMax=0;resizeLast=0;collapsible=1;marginBottom=0;whiteSpace=wrap;html=1;" vertex="1" parent="WIyWlLk6GJQsqaUBKTNV-1">
          <mxGeometry x="211" y="513" width="200" height="160" as="geometry" />
        </mxCell>
        <mxCell id="cYaYZuOsjZ7oo6lZCn4Q-35" value="- particles:&amp;nbsp;vector&amp;lt;Ball_Context *&amp;gt;&lt;br&gt;- current_type : BALL_TYPE" style="text;strokeColor=none;fillColor=none;align=left;verticalAlign=top;spacingLeft=4;spacingRight=4;overflow=hidden;rotatable=0;points=[[0,0.5],[1,0.5]];portConstraint=eastwest;whiteSpace=wrap;html=1;" vertex="1" parent="cYaYZuOsjZ7oo6lZCn4Q-34">
          <mxGeometry y="26" width="200" height="54" as="geometry" />
        </mxCell>
        <mxCell id="cYaYZuOsjZ7oo6lZCn4Q-36" value="" style="line;strokeWidth=1;fillColor=none;align=left;verticalAlign=middle;spacingTop=-1;spacingLeft=3;spacingRight=3;rotatable=0;labelPosition=right;points=[];portConstraint=eastwest;strokeColor=inherit;" vertex="1" parent="cYaYZuOsjZ7oo6lZCn4Q-34">
          <mxGeometry y="80" width="200" height="8" as="geometry" />
        </mxCell>
        <mxCell id="cYaYZuOsjZ7oo6lZCn4Q-37" value="+ setBallType&lt;span style=&quot;background-color: initial;&quot;&gt;()&lt;/span&gt;&lt;br&gt;+ addParticle()&lt;br&gt;+ updateAllParticlesPos()&lt;br&gt;+ handle()&lt;br&gt;&lt;div&gt;&lt;br&gt;&lt;/div&gt;" style="text;strokeColor=none;fillColor=none;align=left;verticalAlign=top;spacingLeft=4;spacingRight=4;overflow=hidden;rotatable=0;points=[[0,0.5],[1,0.5]];portConstraint=eastwest;whiteSpace=wrap;html=1;" vertex="1" parent="cYaYZuOsjZ7oo6lZCn4Q-34">
          <mxGeometry y="88" width="200" height="72" as="geometry" />
        </mxCell>
        <mxCell id="cYaYZuOsjZ7oo6lZCn4Q-38" style="edgeStyle=orthogonalEdgeStyle;rounded=0;orthogonalLoop=1;jettySize=auto;html=1;entryX=0.456;entryY=1;entryDx=0;entryDy=0;entryPerimeter=0;" edge="1" parent="WIyWlLk6GJQsqaUBKTNV-1" source="cYaYZuOsjZ7oo6lZCn4Q-34" target="cYaYZuOsjZ7oo6lZCn4Q-31">
          <mxGeometry relative="1" as="geometry" />
        </mxCell>
        <mxCell id="cYaYZuOsjZ7oo6lZCn4Q-47" value="ChoicePanel" style="swimlane;fontStyle=1;align=center;verticalAlign=top;childLayout=stackLayout;horizontal=1;startSize=26;horizontalStack=0;resizeParent=1;resizeParentMax=0;resizeLast=0;collapsible=1;marginBottom=0;whiteSpace=wrap;html=1;" vertex="1" parent="WIyWlLk6GJQsqaUBKTNV-1">
          <mxGeometry x="543" y="527" width="190" height="140" as="geometry" />
        </mxCell>
        <mxCell id="cYaYZuOsjZ7oo6lZCn4Q-48" value="-&amp;nbsp; static simulator: BallSimulator" style="text;strokeColor=none;fillColor=none;align=left;verticalAlign=top;spacingLeft=4;spacingRight=4;overflow=hidden;rotatable=0;points=[[0,0.5],[1,0.5]];portConstraint=eastwest;whiteSpace=wrap;html=1;" vertex="1" parent="cYaYZuOsjZ7oo6lZCn4Q-47">
          <mxGeometry y="26" width="190" height="26" as="geometry" />
        </mxCell>
        <mxCell id="cYaYZuOsjZ7oo6lZCn4Q-49" value="" style="line;strokeWidth=1;fillColor=none;align=left;verticalAlign=middle;spacingTop=-1;spacingLeft=3;spacingRight=3;rotatable=0;labelPosition=right;points=[];portConstraint=eastwest;strokeColor=inherit;" vertex="1" parent="cYaYZuOsjZ7oo6lZCn4Q-47">
          <mxGeometry y="52" width="190" height="8" as="geometry" />
        </mxCell>
        <mxCell id="cYaYZuOsjZ7oo6lZCn4Q-50" value="+&amp;nbsp;setSimulator()&lt;br&gt;+ handle()&lt;br&gt;+ draw()&lt;br&gt;+ handle()" style="text;strokeColor=none;fillColor=none;align=left;verticalAlign=top;spacingLeft=4;spacingRight=4;overflow=hidden;rotatable=0;points=[[0,0.5],[1,0.5]];portConstraint=eastwest;whiteSpace=wrap;html=1;" vertex="1" parent="cYaYZuOsjZ7oo6lZCn4Q-47">
          <mxGeometry y="60" width="190" height="80" as="geometry" />
        </mxCell>
        <mxCell id="cYaYZuOsjZ7oo6lZCn4Q-51" style="edgeStyle=orthogonalEdgeStyle;rounded=0;orthogonalLoop=1;jettySize=auto;html=1;entryX=1;entryY=0.5;entryDx=0;entryDy=0;" edge="1" parent="WIyWlLk6GJQsqaUBKTNV-1" source="cYaYZuOsjZ7oo6lZCn4Q-48" target="cYaYZuOsjZ7oo6lZCn4Q-35">
          <mxGeometry relative="1" as="geometry" />
        </mxCell>
        <mxCell id="cYaYZuOsjZ7oo6lZCn4Q-52" value="SimulationWindow (Client)" style="swimlane;fontStyle=1;align=center;verticalAlign=top;childLayout=stackLayout;horizontal=1;startSize=26;horizontalStack=0;resizeParent=1;resizeParentMax=0;resizeLast=0;collapsible=1;marginBottom=0;whiteSpace=wrap;html=1;" vertex="1" parent="WIyWlLk6GJQsqaUBKTNV-1">
          <mxGeometry x="378.5" y="760" width="221" height="104" as="geometry" />
        </mxCell>
        <mxCell id="cYaYZuOsjZ7oo6lZCn4Q-53" value="- panel: ChoicePanel&lt;br&gt;- simulator: BallSimulator" style="text;strokeColor=none;fillColor=none;align=left;verticalAlign=top;spacingLeft=4;spacingRight=4;overflow=hidden;rotatable=0;points=[[0,0.5],[1,0.5]];portConstraint=eastwest;whiteSpace=wrap;html=1;" vertex="1" parent="cYaYZuOsjZ7oo6lZCn4Q-52">
          <mxGeometry y="26" width="221" height="44" as="geometry" />
        </mxCell>
        <mxCell id="cYaYZuOsjZ7oo6lZCn4Q-54" value="" style="line;strokeWidth=1;fillColor=none;align=left;verticalAlign=middle;spacingTop=-1;spacingLeft=3;spacingRight=3;rotatable=0;labelPosition=right;points=[];portConstraint=eastwest;strokeColor=inherit;" vertex="1" parent="cYaYZuOsjZ7oo6lZCn4Q-52">
          <mxGeometry y="70" width="221" height="8" as="geometry" />
        </mxCell>
        <mxCell id="cYaYZuOsjZ7oo6lZCn4Q-55" value="+ draw()" style="text;strokeColor=none;fillColor=none;align=left;verticalAlign=top;spacingLeft=4;spacingRight=4;overflow=hidden;rotatable=0;points=[[0,0.5],[1,0.5]];portConstraint=eastwest;whiteSpace=wrap;html=1;" vertex="1" parent="cYaYZuOsjZ7oo6lZCn4Q-52">
          <mxGeometry y="78" width="221" height="26" as="geometry" />
        </mxCell>
        <mxCell id="cYaYZuOsjZ7oo6lZCn4Q-56" style="edgeStyle=orthogonalEdgeStyle;rounded=0;orthogonalLoop=1;jettySize=auto;html=1;entryX=0.475;entryY=0.986;entryDx=0;entryDy=0;entryPerimeter=0;" edge="1" parent="WIyWlLk6GJQsqaUBKTNV-1">
          <mxGeometry relative="1" as="geometry">
            <mxPoint x="490" y="748" as="sourcePoint" />
            <mxPoint x="306" y="669.992" as="targetPoint" />
            <Array as="points">
              <mxPoint x="490" y="710" />
              <mxPoint x="306" y="710" />
            </Array>
          </mxGeometry>
        </mxCell>
        <mxCell id="cYaYZuOsjZ7oo6lZCn4Q-57" style="edgeStyle=orthogonalEdgeStyle;rounded=0;orthogonalLoop=1;jettySize=auto;html=1;entryX=0.521;entryY=1.013;entryDx=0;entryDy=0;entryPerimeter=0;" edge="1" parent="WIyWlLk6GJQsqaUBKTNV-1" source="cYaYZuOsjZ7oo6lZCn4Q-52" target="cYaYZuOsjZ7oo6lZCn4Q-50">
          <mxGeometry relative="1" as="geometry">
            <Array as="points">
              <mxPoint x="489" y="710" />
              <mxPoint x="642" y="710" />
            </Array>
          </mxGeometry>
        </mxCell>
        <mxCell id="cYaYZuOsjZ7oo6lZCn4Q-58" value="«interface»&lt;br&gt;&lt;b&gt;FL_Widget&lt;/b&gt;" style="html=1;whiteSpace=wrap;" vertex="1" parent="WIyWlLk6GJQsqaUBKTNV-1">
          <mxGeometry x="674" y="430" width="110" height="50" as="geometry" />
        </mxCell>
        <mxCell id="cYaYZuOsjZ7oo6lZCn4Q-59" value="" style="endArrow=block;dashed=1;endFill=0;endSize=12;html=1;rounded=0;entryX=0;entryY=0.5;entryDx=0;entryDy=0;" edge="1" parent="WIyWlLk6GJQsqaUBKTNV-1" target="cYaYZuOsjZ7oo6lZCn4Q-58">
          <mxGeometry width="160" relative="1" as="geometry">
            <mxPoint x="410" y="380" as="sourcePoint" />
            <mxPoint x="523" y="454.5" as="targetPoint" />
            <Array as="points">
              <mxPoint x="480" y="380" />
              <mxPoint x="480" y="455" />
            </Array>
          </mxGeometry>
        </mxCell>
        <mxCell id="cYaYZuOsjZ7oo6lZCn4Q-62" value="" style="endArrow=none;dashed=1;html=1;rounded=0;exitX=0.995;exitY=-0.056;exitDx=0;exitDy=0;exitPerimeter=0;" edge="1" parent="WIyWlLk6GJQsqaUBKTNV-1" source="cYaYZuOsjZ7oo6lZCn4Q-35">
          <mxGeometry width="50" height="50" relative="1" as="geometry">
            <mxPoint x="480" y="520" as="sourcePoint" />
            <mxPoint x="480" y="450" as="targetPoint" />
            <Array as="points">
              <mxPoint x="480" y="536" />
            </Array>
          </mxGeometry>
        </mxCell>
        <mxCell id="cYaYZuOsjZ7oo6lZCn4Q-64" value="" style="endArrow=none;dashed=1;html=1;rounded=0;" edge="1" parent="WIyWlLk6GJQsqaUBKTNV-1">
          <mxGeometry width="50" height="50" relative="1" as="geometry">
            <mxPoint x="480" y="536" as="sourcePoint" />
            <mxPoint x="540" y="536" as="targetPoint" />
          </mxGeometry>
        </mxCell>
        <mxCell id="cYaYZuOsjZ7oo6lZCn4Q-65" value="Implements" style="text;html=1;align=center;verticalAlign=middle;resizable=0;points=[];autosize=1;strokeColor=none;fillColor=none;" vertex="1" parent="WIyWlLk6GJQsqaUBKTNV-1">
          <mxGeometry x="505" y="432" width="90" height="30" as="geometry" />
        </mxCell>
        <mxCell id="cYaYZuOsjZ7oo6lZCn4Q-66" value="Uses" style="text;html=1;align=center;verticalAlign=middle;resizable=0;points=[];autosize=1;strokeColor=none;fillColor=none;" vertex="1" parent="WIyWlLk6GJQsqaUBKTNV-1">
          <mxGeometry x="303" y="468" width="50" height="30" as="geometry" />
        </mxCell>
        <mxCell id="cYaYZuOsjZ7oo6lZCn4Q-67" value="Uses" style="text;html=1;align=center;verticalAlign=middle;resizable=0;points=[];autosize=1;strokeColor=none;fillColor=none;" vertex="1" parent="WIyWlLk6GJQsqaUBKTNV-1">
          <mxGeometry x="430" y="315" width="50" height="30" as="geometry" />
        </mxCell>
        <mxCell id="cYaYZuOsjZ7oo6lZCn4Q-68" value="Uses" style="text;html=1;align=center;verticalAlign=middle;resizable=0;points=[];autosize=1;strokeColor=none;fillColor=none;" vertex="1" parent="WIyWlLk6GJQsqaUBKTNV-1">
          <mxGeometry x="464" y="680" width="50" height="30" as="geometry" />
        </mxCell>
        <mxCell id="cYaYZuOsjZ7oo6lZCn4Q-69" value="Uses" style="text;html=1;align=center;verticalAlign=middle;resizable=0;points=[];autosize=1;strokeColor=none;fillColor=none;" vertex="1" parent="WIyWlLk6GJQsqaUBKTNV-1">
          <mxGeometry x="464" y="560" width="50" height="30" as="geometry" />
        </mxCell>
        <mxCell id="cYaYZuOsjZ7oo6lZCn4Q-70" style="edgeStyle=orthogonalEdgeStyle;rounded=0;orthogonalLoop=1;jettySize=auto;html=1;entryX=-0.004;entryY=-0.149;entryDx=0;entryDy=0;entryPerimeter=0;exitX=0.008;exitY=0.675;exitDx=0;exitDy=0;exitPerimeter=0;" edge="1" parent="WIyWlLk6GJQsqaUBKTNV-1" source="cYaYZuOsjZ7oo6lZCn4Q-35" target="cYaYZuOsjZ7oo6lZCn4Q-26">
          <mxGeometry relative="1" as="geometry">
            <mxPoint x="436.74999999999955" y="185.45000000000005" as="targetPoint" />
            <mxPoint x="151" y="576" as="sourcePoint" />
            <Array as="points">
              <mxPoint x="140" y="575" />
              <mxPoint x="140" y="173" />
            </Array>
          </mxGeometry>
        </mxCell>
        <mxCell id="cYaYZuOsjZ7oo6lZCn4Q-72" value="Uses" style="text;html=1;align=center;verticalAlign=middle;resizable=0;points=[];autosize=1;strokeColor=none;fillColor=none;" vertex="1" parent="WIyWlLk6GJQsqaUBKTNV-1">
          <mxGeometry x="140" y="200" width="50" height="30" as="geometry" />
        </mxCell>
      </root>
    </mxGraphModel>
  </diagram>
</mxfile>
